# xmcd
#
# Track frame offsets:
#	150
#	12644
#	23912
#	36817
#	49815
#	64944
#	77447
#	90056
#	105041
#	118586
#	132224
#	144677
#	157258
#	170413
#	183489
#
# Disc length: 2624
#
# Revision: 2
# Processed by: cddbd v1.5.2PL0 Copyright (c) Steve Scherf et al.
# Submitted via: kJams Pro (development) 1.0patch46.55
#
DISCID=bd0a3e0f
DTITLE=Various Artist - CB 60073
DYEAR=1980
DGENRE=Country
TTITLE0=Eddy Arnold - Cattle Call
TTITLE1=Tenessee Ernie Ford - Hey Mr. Cottonpicker
TTITLE2=Hank Williams - Settin' The Woods On Fire
TTITLE3=Sons Of The Pioneers - Ghost Riders In The Sky
TTITLE4=Roy Rogers - Happy Trails
TTITLE5=Marty Robbins - Streets Of Laredo
TTITLE6=Gene Autry - You Are My Sunshine
TTITLE7=Eddy Arnold - Wagon Wheels
TTITLE8=Tom T. Hall - Faster Horses
TTITLE9=Charley Pride - The Snakes Crawl At Night
TTITLE10=Charlie Rich - Big Boss Man
TTITLE11=Ray Price - My Shoes Keep Walking Back To You
TTITLE12=Ernest Tubb - Filipino Baby
TTITLE13=Jim Reeves - Blue Side Of Lonesome
TTITLE14=Lefty Frizzel - Mom And Dad's Waltz
EXTD=
EXTT0=
EXTT1=
EXTT2=
EXTT3=
EXTT4=
EXTT5=
EXTT6=
EXTT7=
EXTT8=
EXTT9=
EXTT10=
EXTT11=
EXTT12=
EXTT13=
EXTT14=
PLAYORDER=
